<svg width="34" height="34" viewBox="0 0 34 34" fill="none" xmlns="http://www.w3.org/2000/svg">
<circle cx="17" cy="17" r="15.5" fill="#823232" stroke="#11111B" stroke-width="3"/>
<path fill-rule="evenodd" clip-rule="evenodd" d="M17 9.40625C18.3614 9.40626 19.5312 10.575 19.5312 11.8939V17.0436C19.5313 18.3627 18.3613 19.5312 17 19.5312C15.6386 19.5312 14.4688 18.3625 14.4688 17.0436V11.8939C14.4687 10.5748 15.6387 9.40625 17 9.40625Z" fill="#DCDAFF"/>
<path d="M20.685 17.9852C20.9169 17.5827 21.4311 17.4432 21.8348 17.6737C22.2393 17.9049 22.3801 18.4205 22.149 18.8251C22.149 18.8251 22.1461 18.824 22.1484 18.8256L22.1479 18.8262L22.1473 18.8278C22.1467 18.8289 22.1459 18.8303 22.1451 18.8317C22.1435 18.8345 22.1414 18.8381 22.1391 18.8421C22.1342 18.8505 22.1274 18.8617 22.1193 18.8751C22.103 18.902 22.0798 18.9391 22.0506 18.9844C21.9921 19.0752 21.9075 19.2009 21.7974 19.3491C21.5779 19.6446 21.2514 20.0383 20.8224 20.4335C20.1143 21.0856 19.0829 21.778 17.7588 21.9935V22.9851H20.1313C20.5973 22.9851 20.975 23.3629 20.9751 23.8288C20.9749 24.2947 20.5972 24.6726 20.1313 24.6726H13.6983C13.2325 24.6724 12.8547 24.2946 12.8545 23.8288C12.8546 23.3629 13.2324 22.9852 13.6983 22.9851H16.0713V21.9935C14.7484 21.7775 13.7176 21.0852 13.01 20.4335C12.5809 20.0382 12.2544 19.6446 12.035 19.3491C11.9248 19.2009 11.8403 19.0752 11.7817 18.9844C11.7525 18.9391 11.7294 18.902 11.7131 18.8751C11.7049 18.8617 11.6982 18.8505 11.6933 18.8421C11.6909 18.838 11.6889 18.8345 11.6872 18.8317C11.6864 18.8303 11.6857 18.8289 11.685 18.8278L11.6845 18.8262L11.6839 18.8256L11.6834 18.8251C11.4524 18.4206 11.5932 17.905 11.9976 17.6737C12.4013 17.4431 12.9154 17.5827 13.1473 17.9852L13.1484 17.9868C13.1498 17.9891 13.1524 17.9941 13.1567 18.0011C13.1653 18.0153 13.1798 18.039 13.2001 18.0703C13.2407 18.1333 13.3041 18.2277 13.3896 18.3428C13.5618 18.5747 13.8189 18.8842 14.1531 19.192C14.828 19.8136 15.7582 20.3752 16.9162 20.3753C18.0742 20.3753 19.0043 19.8136 19.6792 19.192C20.0134 18.8843 20.2705 18.5747 20.4428 18.3428C20.5282 18.2278 20.5917 18.1333 20.6323 18.0703C20.6524 18.0391 20.6671 18.0153 20.6757 18.0011C20.6799 17.9943 20.6826 17.9892 20.6839 17.9868L20.685 17.9852Z" fill="#DCDAFF"/>
<g clip-path="url(#clip0_654_825)">
<path d="M20.9375 11.9375L12.5 20.9375" stroke="#823232" stroke-width="4" stroke-linecap="round"/>
<path d="M20.9375 11.9375L12.5 20.9375" stroke="#DCDAFF" stroke-width="2" stroke-linecap="round"/>
</g>
<defs>
<clipPath id="clip0_654_825">
<rect width="11.25" height="12.375" fill="white" transform="translate(11.375 10.25)"/>
</clipPath>
</defs>
</svg>
