<svg width="18" height="18" viewBox="0 0 18 18" fill="none" xmlns="http://www.w3.org/2000/svg">
<path fill-rule="evenodd" clip-rule="evenodd" d="M9 1.40625C10.3614 1.40626 11.5312 2.575 11.5312 3.89389V9.04361C11.5313 10.3627 10.3613 11.5312 9 11.5312C7.63859 11.5312 6.46885 10.3625 6.46875 9.04361V3.89389C6.46866 2.57482 7.63867 1.40625 9 1.40625Z" fill="#DCDAFF"/>
<path d="M12.685 9.98518C12.9169 9.58272 13.4311 9.44323 13.8348 9.67372C14.2393 9.90489 14.3801 10.4205 14.149 10.8251C14.149 10.8251 14.1461 10.824 14.1484 10.8256L14.1479 10.8262L14.1473 10.8278C14.1467 10.8289 14.1459 10.8303 14.1451 10.8317C14.1435 10.8345 14.1414 10.8381 14.1391 10.8421C14.1342 10.8505 14.1274 10.8617 14.1193 10.8751C14.103 10.902 14.0798 10.9391 14.0506 10.9844C13.9921 11.0752 13.9075 11.2009 13.7974 11.3491C13.5779 11.6446 13.2514 12.0383 12.8224 12.4335C12.1143 13.0856 11.0829 13.778 9.75884 13.9935V14.9851H12.1313C12.5973 14.9851 12.975 15.3629 12.9751 15.8288C12.9749 16.2947 12.5972 16.6726 12.1313 16.6726H5.69829C5.2325 16.6724 4.85469 16.2946 4.85454 15.8288C4.85458 15.3629 5.23243 14.9852 5.69829 14.9851H8.07134V13.9935C6.74843 13.7775 5.71762 13.0852 5.01 12.4335C4.58088 12.0382 4.25443 11.6446 4.03496 11.3491C3.92482 11.2009 3.84027 11.0752 3.78173 10.9844C3.7525 10.9391 3.7294 10.902 3.71306 10.8751C3.70494 10.8617 3.6982 10.8505 3.69329 10.8421C3.69088 10.838 3.68887 10.8345 3.68725 10.8317C3.68643 10.8303 3.68567 10.8289 3.68505 10.8278L3.6845 10.8262L3.68395 10.8256L3.6834 10.8251C3.45236 10.4206 3.59324 9.90495 3.99761 9.67372C4.40129 9.44313 4.91541 9.58269 5.14733 9.98518L5.14843 9.98683C5.14975 9.98908 5.15242 9.99409 5.15667 10.0011C5.16526 10.0153 5.17985 10.039 5.20006 10.0703C5.24068 10.1333 5.30407 10.2277 5.38958 10.3428C5.56183 10.5747 5.81893 10.8842 6.15313 11.192C6.82801 11.8136 7.7582 12.3752 8.91619 12.3753C10.0742 12.3753 11.0043 11.8136 11.6792 11.192C12.0134 10.8843 12.2705 10.5747 12.4428 10.3428C12.5282 10.2278 12.5917 10.1333 12.6323 10.0703C12.6524 10.0391 12.6671 10.0153 12.6757 10.0011C12.6799 9.99427 12.6826 9.98917 12.6839 9.98683L12.685 9.98518Z" fill="#DCDAFF"/>
<g clip-path="url(#clip0_654_827)">
<path d="M12.9375 3.9375L4.5 12.9375" stroke="#823232" stroke-width="4" stroke-linecap="round"/>
<path d="M12.9375 3.9375L4.5 12.9375" stroke="#DCDAFF" stroke-width="2" stroke-linecap="round"/>
</g>
<defs>
<clipPath id="clip0_654_827">
<rect width="11.25" height="12.375" fill="white" transform="translate(3.375 2.25)"/>
</clipPath>
</defs>
</svg>
