<svg width="32" height="32" viewBox="0 0 32 32" fill="none" xmlns="http://www.w3.org/2000/svg">
<path d="M11.9999 12V8.26693C11.9999 6.77345 11.9999 6.02616 12.2906 5.45573C12.5462 4.95396 12.9539 4.54631 13.4556 4.29065C14.026 4 14.7733 4 16.2668 4H23.7334C25.2268 4 25.9732 4 26.5436 4.29065C27.0453 4.54631 27.4537 4.95396 27.7094 5.45573C28 6.02616 28 6.7729 28 8.26637V15.7331C28 17.2265 28 17.9733 27.7094 18.5437C27.4537 19.0455 27.0449 19.454 26.5432 19.7096C25.9733 20 25.2278 20 23.7372 20H19.9998M11.9999 12H8.26688C6.77342 12 6.02614 12 5.45571 12.2906C4.95395 12.5463 4.54631 12.954 4.29065 13.4557C4 14.0262 4 14.7735 4 16.2669V23.7336C4 25.2271 4 25.9734 4.29065 26.5438C4.54631 27.0456 4.95395 27.454 5.45571 27.7096C6.02558 28 6.77196 28 8.26249 28H15.7379C17.2285 28 17.9738 28 18.5437 27.7096C19.0454 27.454 19.4538 27.0452 19.7094 26.5435C19.9998 25.9736 19.9998 25.228 19.9998 23.7375V20M11.9999 12H15.7335C17.2269 12 17.9732 12 18.5437 12.2906C19.0454 12.5463 19.4538 12.954 19.7094 13.4557C19.9998 14.0256 19.9998 14.772 19.9998 16.2626L19.9998 20" stroke="#DCDAFF" stroke-width="3" stroke-linecap="round" stroke-linejoin="round"/>
</svg>
