<svg width="28" height="28" viewBox="0 0 28 28" fill="none" xmlns="http://www.w3.org/2000/svg">
<path d="M8.01302 24.4023C9.77501 25.4185 11.8194 25.9999 13.9995 25.9999C20.6269 25.9999 26 20.6274 26 14C26 7.37258 20.6274 2 14 2C7.37258 2 2 7.37258 2 14C2 16.1802 2.58139 18.2245 3.59759 19.9865L3.60153 19.9933C3.6993 20.1629 3.74861 20.2483 3.77094 20.3291C3.79201 20.4053 3.79789 20.4739 3.7925 20.5527C3.7867 20.6375 3.75814 20.7254 3.69958 20.901L2.67448 23.9763L2.67319 23.9804C2.4569 24.6292 2.34876 24.9537 2.42585 25.1698C2.49306 25.3583 2.64225 25.5071 2.83073 25.5743C3.04642 25.6512 3.36939 25.5435 4.0154 25.3282L4.02344 25.3252L7.09873 24.3001C7.27383 24.2418 7.36285 24.2122 7.44746 24.2064C7.52633 24.201 7.59437 24.2081 7.67057 24.2292C7.75158 24.2516 7.83711 24.3009 8.00751 24.3992L8.01302 24.4023Z" stroke="#DCDAFF" stroke-width="3" stroke-linecap="round" stroke-linejoin="round"/>
</svg>
