<svg width="28" height="28" viewBox="0 0 28 28" fill="none" xmlns="http://www.w3.org/2000/svg">
<path d="M10.6699 3.67629C10.265 2.66387 9.28442 2 8.19401 2H4.52632C3.13107 2 2 3.1308 2 4.52604C2 16.3856 11.6144 26 23.474 26C24.8692 26 26 24.8688 26 23.4736L26.0006 19.8053C26.0006 18.7149 25.3369 17.7345 24.3245 17.3295L20.8092 15.9239C19.8998 15.5601 18.8644 15.7239 18.1119 16.3509L17.2047 17.1076C16.1452 17.9905 14.5862 17.9203 13.6109 16.945L11.0563 14.3881C10.081 13.4128 10.009 11.8551 10.8919 10.7956L11.6484 9.8884C12.2755 9.13594 12.4407 8.10021 12.0769 7.19079L10.6699 3.67629Z" stroke="#DCDAFF" stroke-width="3" stroke-linecap="round" stroke-linejoin="round"/>
</svg>
